<?xml version="1.0" standalone="no"?>
<!DOCTYPE svg PUBLIC "-//W3C//DTD SVG 20010904//EN"
 "http://www.w3.org/TR/2001/REC-SVG-20010904/DTD/svg10.dtd">
<svg version="1.0" xmlns="http://www.w3.org/2000/svg"
 width="500.000000pt" height="127.000000pt" viewBox="0 0 500.000000 127.000000"
 preserveAspectRatio="xMidYMid meet">
<metadata>
Created by potrace 1.16, written by Peter Selinger 2001-2019
</metadata>
<g transform="translate(0.000000,127.000000) scale(0.100000,-0.100000)"
fill="#000000" stroke="none">
<path d="M563 1251 c-54 -14 -112 -55 -313 -223 -258 -216 -244 -189 -248
-495 -4 -286 3 -321 81 -400 84 -83 92 -84 564 -81 l398 3 55 30 c60 33 114
96 130 153 13 47 13 495 0 542 -5 20 -21 51 -34 69 -35 48 -413 359 -464 382
-49 23 -123 32 -169 20z m203 -567 c61 -29 64 -44 64 -324 l0 -250 -94 0 -95
0 -3 224 -3 224 -31 39 c-17 21 -52 50 -79 64 -29 17 -42 29 -34 32 8 3 65 6
127 6 86 1 122 -3 148 -15z m-253 -76 c67 -34 77 -70 77 -300 l0 -198 -90 0
-90 0 0 239 c0 136 4 251 10 266 11 29 23 28 93 -7z"/>
<path d="M1422 488 l3 -193 133 -3 132 -3 0 46 0 45 -70 0 -70 0 0 40 0 40 65
0 65 0 0 35 0 35 -65 0 -65 0 0 35 0 35 70 0 70 0 0 40 0 40 -135 0 -135 0 2
-192z"/>
<path d="M3742 488 l3 -193 130 0 130 0 3 43 3 42 -65 0 -66 0 0 40 0 40 60 0
60 0 0 35 0 35 -60 0 -60 0 0 35 0 35 65 0 65 0 0 40 0 40 -135 0 -135 0 2
-192z"/>
<path d="M1730 571 c0 -5 16 -37 36 -70 l36 -61 -41 -69 c-22 -38 -41 -72 -41
-75 0 -3 22 -6 49 -6 52 0 74 13 86 50 9 28 17 25 43 -15 20 -32 26 -35 72
-35 28 0 50 3 50 6 0 3 -18 37 -40 75 l-41 69 36 61 c19 33 35 64 35 70 0 5
-22 9 -50 9 -47 0 -50 -2 -69 -37 l-19 -38 -18 38 c-17 36 -19 37 -71 37 -29
0 -53 -4 -53 -9z"/>
<path d="M2060 384 l0 -197 38 7 c20 3 45 6 55 6 15 0 17 10 17 71 l0 71 31
-26 c37 -32 90 -34 136 -6 111 67 83 242 -41 266 -44 8 -73 -2 -103 -34 l-23
-25 0 32 0 31 -55 0 -55 0 0 -196z"/>
<path d="M2523 560 c-111 -50 -111 -200 0 -250 73 -34 187 -22 187 19 0 41 -9
49 -46 41 -36 -8 -71 -4 -91 13 -23 17 -14 24 40 31 118 15 117 15 110 50 -10
53 -33 87 -68 102 -46 19 -82 17 -132 -6z"/>
<path d="M2772 438 l3 -143 55 0 55 0 5 85 c3 47 9 91 13 98 11 16 62 16 75
-1 6 -7 12 -51 14 -97 l3 -85 50 0 50 0 0 112 c0 110 -1 113 -28 140 -37 37
-113 40 -149 6 -14 -13 -27 -23 -29 -23 -3 0 -5 10 -5 23 1 20 -4 22 -57 25
l-58 3 3 -143z"/>
<path d="M3210 562 c-71 -35 -75 -126 -7 -152 71 -26 78 -30 71 -41 -4 -7 -24
-9 -55 -6 -50 6 -59 -1 -59 -43 0 -15 10 -20 46 -26 95 -14 159 13 170 72 9
47 -18 84 -76 104 -54 19 -48 35 12 34 44 -2 46 0 50 28 4 24 0 31 -19 39 -38
14 -95 11 -133 -9z"/>
<path d="M3493 560 c-102 -46 -111 -185 -16 -247 20 -13 47 -18 105 -18 87 0
103 9 93 53 -6 28 -8 29 -41 22 -36 -8 -71 -4 -91 13 -23 17 -14 24 40 31 118
15 115 13 107 54 -10 55 -28 82 -65 98 -46 19 -82 17 -132 -6z"/>
<path d="M4131 562 c-53 -27 -75 -64 -75 -126 0 -61 19 -97 67 -126 45 -28 99
-26 136 5 l30 26 3 -23 c3 -20 9 -23 53 -23 l50 0 3 143 3 142 -56 0 -55 0 0
-32 c0 -33 -1 -33 -18 -12 -37 46 -85 55 -141 26z"/>
<path d="M4513 566 c-38 -17 -53 -43 -53 -90 0 -41 31 -70 86 -80 54 -11 37
-31 -24 -29 -46 2 -51 0 -57 -24 -8 -33 3 -43 53 -50 93 -13 162 26 162 90 0
45 -16 64 -74 85 -59 21 -57 37 5 36 45 -2 47 0 53 29 3 17 4 33 1 35 -13 13
-122 11 -152 -2z"/>
<path d="M4793 561 c-108 -50 -110 -195 -3 -248 73 -37 190 -27 190 16 0 41
-9 49 -47 40 -38 -8 -103 10 -103 29 0 5 26 13 58 16 125 15 127 17 92 94 -31
69 -105 90 -187 53z"/>
</g>
</svg>
